<svg width="139" height="134" xmlns="http://www.w3.org/2000/svg" xmlns:xlink="http://www.w3.org/1999/xlink" xml:space="preserve" overflow="hidden"><defs><clipPath id="clip0"><rect x="1322" y="796" width="139" height="134"/></clipPath></defs><g clip-path="url(#clip0)" transform="translate(-1322 -796)"><path d="M24.5158 12.5279C21.4829 9.45504 27.4154-3.07642 34.8132 0.769715 42.2109 4.61585 36.3119 13.837 36.3119 13.837 36.3119 13.837 34.474 14.7825 24.5158 12.5279ZM86.4419 93.6888C86.4419 93.6888 88.0064 97.7009 89.0528 100.579 90.0993 103.457 89.6394 119.452 89.0746 120.506 86.4419 122.533 86.7501 123.88 87.726 124.496 89.7941 125.803 96.9451 125.231 99.0163 123.155 100.499 122.282 98.1442 113.682 102.156 106.509 104.118 103 101.132 98.7282 100.739 97.3521 100.235 95.5892 101.633 91.4001 101.633 91.4001L86.4419 93.6888ZM51.7439 112.868C50.9728 113.177 46.7139 123.306 44.8919 126.932 43.0699 130.557 35.5647 128.361 34.2975 126.797 32.804 124.953 34.461 123.155 35.8707 122.268 37.6782 121.131 38.2402 118.283 38.6693 116.106 39.5754 111.511 41.6706 106.468 41.757 101.844 41.8736 95.6079 41.9608 89.765 42.2224 89.5906 42.484 89.4162 51.2048 90.2883 51.2048 90.2883L54.8675 92.6429 57.1349 93.5149 53.2977 109.241 51.7439 112.868Z" fill="#72412B" transform="matrix(1 0 0 1.00259 1322.33 799.102)"/><path d="M132.165 83.8315 130.76 86.4075 129.168 83.8315C129.168 83.8315 129.103 77.6249 128.124 71.7028 127.35 77.3436 124.887 82.0369 123.282 84.2709 120.273 88.4569 119.488 94.2126 121.058 96.4364 125.375 101.8 123.674 105.201 122.889 108.209 122.105 111.218 122.105 115.666 121.581 121.683 121.058 127.7 110.462 126.654 109.416 124.953 108.369 123.253 111.116 121.291 111.116 121.291 111.116 121.291 112.948 102.846 109.154 99.5758 105.361 96.3055 104.685 92.2384 104.685 92.2384 104.685 92.2384 100.229 93.7154 75.6237 93.8791 75.6236 93.8791 75.6236 93.8792 75.6236 93.8793 75.1011 95.3774 60.3616 104.939 59.9111 105.637 59.4605 106.334 61.8442 117.061 62.4546 121.072 63.065 125.084 55.6525 127.7 53.7339 127.09 51.8153 126.479 53.0362 120.113 51.1177 115.84 49.1991 111.567 45.5364 103.195 48.7631 100.23 51.0358 98.1414 54.0421 94.9733 55.6221 93.2815 28.8293 90.1195 11.761 74.5041 5.66891 56.4493 5.66921 56.4514 5.66958 56.4536 5.66988 56.4557 0 59.8747-0.20402 38.7486 3.15705 30.3767 1.34072 33.2996-0.334797 32.3389 0.0576325 29.9843 2.80464 17.6881 9.27583 11.972 9.27593 11.9719 7.45445 7.88011 7.4236 1.9103 12.5501 0.355523 17.123-1.03137 19.8051 1.8994 21.2621 4.65456 22.7261 4.194 24.8209 3.91019 27.8332 4.04003 37.9493 4.47608 43.8794 12.412 42.3968 12.5864 40.9143 12.7608 36.8155 10.2317 36.8155 10.2317 36.8155 10.2317 42.2324 13.7417 40.3559 15.7794 45.1946 21.0568 50.9819 22.9286 53.6902 24.2285 56.9605 25.7982 56.8297 31.6847 53.5594 38.2253 50.2891 44.7659 38.1237 41.7572 31.1907 39.7951 26.7431 51.5681 33.9377 59.8092 43.6178 60.3324 53.2978 60.8557 54.3443 47.9053 62.5854 44.7659 70.8265 41.6265 75.9281 27.6296 79.1984 22.528 81.0312 19.6689 99.2125 10.1009 105.884 31.4232 111.564 49.5785 115.538 46.1128 121.358 51.7884 121.358 51.7884 130.128 54.4459 131.523 74.5036 131.746 78.5429 131.91 81.4801 132.165 83.8315ZM132.165 83.8315 130.76 86.4075 129.168 83.8315C129.168 83.8315 129.103 77.6249 128.124 71.7028 127.35 77.3436 124.887 82.0369 123.282 84.2709 120.273 88.4569 119.488 94.2126 121.058 96.4364 125.375 101.8 123.674 105.201 122.889 108.209 122.105 111.218 122.105 115.666 121.581 121.683 121.058 127.7 110.462 126.654 109.416 124.953 108.369 123.253 111.116 121.291 111.116 121.291 111.116 121.291 112.948 102.846 109.154 99.5758 105.361 96.3055 104.685 92.2384 104.685 92.2384 104.685 92.2384 100.229 93.7154 75.6237 93.8791 75.6236 93.8791 75.6236 93.8792 75.6236 93.8793 75.1011 95.3774 60.3616 104.939 59.9111 105.637 59.4605 106.334 61.8442 117.061 62.4546 121.072 63.065 125.084 55.6525 127.7 53.7339 127.09 51.8153 126.479 53.0362 120.113 51.1177 115.84 49.1991 111.567 45.5364 103.195 48.7631 100.23 51.0358 98.1414 54.0421 94.9733 55.6221 93.2815 28.8293 90.1195 11.761 74.5041 5.66891 56.4493 5.66921 56.4514 5.66958 56.4536 5.66988 56.4557 0 59.8747-0.20402 38.7486 3.15705 30.3767 1.34072 33.2996-0.334797 32.3389 0.0576325 29.9843 2.80464 17.6881 9.27583 11.972 9.27593 11.9719 7.45445 7.88011 7.4236 1.9103 12.5501 0.355523 17.123-1.03137 19.8051 1.8994 21.2621 4.65456 22.7261 4.194 24.8209 3.91019 27.8332 4.04003 37.9493 4.47608 43.8794 12.412 42.3968 12.5864 40.9143 12.7608 36.8155 10.2317 36.8155 10.2317 36.8155 10.2317 42.2324 13.7417 40.3559 15.7794 45.1946 21.0568 50.9819 22.9286 53.6902 24.2285 56.9605 25.7982 56.8297 31.6847 53.5594 38.2253 50.2891 44.7659 38.1237 41.7572 31.1907 39.7951 26.7431 51.5681 33.9377 59.8092 43.6178 60.3324 53.2978 60.8557 54.3443 47.9053 62.5854 44.7659 70.8265 41.6265 75.9281 27.6296 79.1984 22.528 81.0312 19.6689 99.2125 10.1009 105.884 31.4232 111.564 49.5785 115.538 46.1128 121.358 51.7884 121.358 51.7884 130.128 54.4459 131.523 74.5036 131.746 78.5429 131.91 81.4801 132.165 83.8315Z" fill="#A4754C" transform="matrix(1 0 0 1.00259 1322.33 799.102)"/><path d="M27.6724 26.6742C30.5488 26.4906 33.6714 24.817 32.9642 19.794 32.2805 14.9375 28.3083 14.6375 26.0374 14.8735 23.7666 15.1095 20.2074 16.9252 21.0249 21.5668 21.8424 26.2084 25.2031 26.8317 27.6724 26.6742ZM27.6724 26.6742C30.5488 26.4906 33.6714 24.817 32.9642 19.794 32.2805 14.9375 28.3083 14.6375 26.0374 14.8735 23.7666 15.1095 20.2074 16.9252 21.0249 21.5668 21.8424 26.2084 25.2031 26.8317 27.6724 26.6742Z" fill="#F1F1F2" transform="matrix(1 0 0 1.00259 1322.33 799.102)"/><path d="M25.6008 25.6249C24.679 25.6863 23.5981 25.6012 22.6516 25.0818 21.916 24.425 21.1891 23.2145 20.9055 21.6038 20.5339 19.4943 21.1884 17.8335 22.0918 16.874 22.8184 16.3624 23.6456 16.094 24.3262 16.0202 26.0965 15.8281 29.1933 16.0722 29.7263 20.025 30.2777 24.1133 27.8433 25.4755 25.6008 25.6249ZM25.6008 25.6249C24.679 25.6863 23.5981 25.6012 22.6516 25.0818 21.916 24.425 21.1891 23.2145 20.9055 21.6038 20.5339 19.4943 21.1884 17.8335 22.0918 16.874 22.8184 16.3624 23.6456 16.094 24.3262 16.0202 26.0965 15.8281 29.1933 16.0722 29.7263 20.025 30.2777 24.1133 27.8433 25.4755 25.6008 25.6249Z" fill="#231F20" transform="matrix(1 0 0 1.00259 1322.33 799.102)"/><path d="M12.5559 11.9719C10.675 9.76544 9.74742 4.44268 13.6552 3.25754 16.7077 2.33178 18.3999 4.50991 19.249 6.31313 17.9153 7.08425 14.9949 8.97606 12.5559 11.9719ZM12.5559 11.9719C10.675 9.76544 9.74742 4.44268 13.6552 3.25754 16.7077 2.33178 18.3999 4.50991 19.249 6.31313 17.9153 7.08425 14.9949 8.97606 12.5559 11.9719Z" fill="#CC956E" transform="matrix(1 0 0 1.00259 1322.33 799.102)"/><path d="M21.9031 5.95861C21.2621 4.65459 21.2621 4.65459 21.2621 4.65459 22.726 4.19404 24.8208 3.91022 27.8332 4.04006 37.9492 4.47611 43.8793 12.412 42.3968 12.5864 40.9143 12.7608 36.8155 10.2318 36.8155 10.2318 36.8155 10.2318 42.2324 13.7417 40.3559 15.7794 40.3559 15.7794 37.9492 16.5979 34.1121 12.2375 30.275 7.8772 26.6123 5.95861 21.9031 5.95861ZM5.77402 40.5727C5.25078 27.0337 10.9343 14.0305 10.9343 14.0305 10.9343 14.0305 9.86064 12.9053 9.27589 11.9719 9.27583 11.972 2.80464 17.6881 0.0576325 29.9843-0.33483 32.3389 1.34072 33.2996 3.15705 30.3767-0.203987 38.7486 0 59.8743 5.66968 56.4558L5.66888 56.4494C5.66888 56.4494 3.71833 50.5724 3.52006 42.1518 4.48664 43.7534 5.86367 43.6667 5.77402 40.5727Z" fill="#72412B" fill-opacity="0.5" transform="matrix(1 0 0 1.00259 1322.33 799.102)"/><path d="M132.165 83.8315C132.165 83.8315 133.093 91.531 136.886 96.1094 138.652 98.0061 135.292 99.1834 132.165 91.9234 132.831 94.5397 134.247 96.698 134.77 97.9408 135.292 99.1834 130.803 97.0251 129.953 92.1196 129.103 87.2142 129.168 83.8315 129.168 83.8315 129.168 83.8315 130.779 85.6813 132.165 83.8315ZM56.557 126.824C56.5438 126.81 54.9411 125.141 56.1327 123.331 56.2343 123.176 56.1815 122.968 56.0245 122.87 55.8675 122.773 55.6613 122.822 55.5644 122.979 54.1673 125.235 55.8371 126.977 55.8539 126.995 55.9361 127.009 56.3972 126.888 56.557 126.824ZM113.22 126.227C112.381 123.174 114.719 122.104 114.83 122.062 115.003 121.997 115.091 121.805 115.027 121.632 114.963 121.459 114.77 121.37 114.597 121.435 114.567 121.446 111.605 122.591 112.504 126.148 112.515 126.191 113.002 126.24 113.22 126.227ZM104.685 92.2385C104.676 92.1865 103.824 86.9987 104.251 81.8671 104.266 81.6829 104.13 81.5213 103.946 81.5063 103.757 81.488 103.6 81.6278 103.585 81.8116 103.151 87.0255 104.024 92.3385 104.033 92.3917 104.245 92.3589 104.619 92.2666 104.685 92.2385ZM55.2811 93.6524 58.6396 89.9233C58.7632 89.7861 58.7521 89.5749 58.615 89.4512 58.4777 89.3281 58.2665 89.3386 58.1427 89.476L54.7843 93.2052C54.6607 93.3423 54.6718 93.5535 54.8089 93.6772 54.8729 93.7347 54.9529 93.7631 55.0325 93.7631 55.124 93.7631 55.2151 93.7259 55.2811 93.6524ZM46.1306 37.0344C45.9301 37.0247 45.7239 36.9961 45.5118 36.9486 43.1392 36.4155 42.9547 33.7206 43.1887 32.37 43.22 32.1885 43.388 32.0671 43.5747 32.0978 43.7566 32.1291 43.8786 32.302 43.8473 32.4839 43.8244 32.6178 43.3139 35.7697 45.6584 36.2961 46.3306 36.4473 46.9211 36.3614 47.4156 36.0428 48.4665 35.3654 48.791 33.8527 48.794 33.8375 48.8315 33.657 49.0054 33.5412 49.1889 33.5778 49.3695 33.615 49.4859 33.7912 49.449 33.9718 49.4341 34.045 49.0686 35.77 47.7815 36.6024 47.2916 36.9192 46.7381 37.0637 46.1306 37.0344ZM51.5645 26.9102C49.2923 26.1254 46.7506 27.8239 50.8519 28.807 53.7625 29.5047 53.7045 27.6494 51.5645 26.9102Z" fill="#72412B" transform="matrix(1 0 0 1.00259 1322.33 799.102)"/><path d="M97.7928 29.2166C96.5644 29.8315 95.83 31.4441 97.2828 34.9027 98.6858 38.2428 100.806 38.1299 101.785 37.6569 102.912 37.1122 103.52 35.146 101.997 31.7744 100.461 28.3767 98.8474 28.6888 97.7928 29.2166ZM90.2491 23.4699C89.5362 24.1229 89.3085 25.2866 90.8184 27.1141 92.2766 28.8791 93.6578 28.3411 94.2288 27.8312 94.8862 27.244 94.9744 25.8885 93.4314 24.1307 91.8763 22.3593 90.8611 22.9093 90.2491 23.4699ZM90.3109 32.4265C89.7138 32.8515 89.3973 33.6284 90.2395 34.8838 91.0528 36.0962 92.114 35.761 92.5905 35.4295 93.1392 35.0477 93.3809 34.1393 92.5058 32.9302 91.6239 31.7116 90.8235 32.0617 90.3109 32.4265ZM62.6612 53.3264C63.4246 53.9196 64.6099 53.9489 66.1582 52.1538 67.6535 50.4201 66.8914 49.1487 66.2929 48.6714 65.6038 48.1218 64.2527 48.2623 62.7787 50.0784 61.2934 51.9086 62.0058 52.8172 62.6612 53.3264ZM19.3462 69.5898C18.552 70.5708 18.5056 72.1444 20.8847 74.3028 23.1823 76.3872 24.8789 75.4459 25.5178 74.6774 26.2534 73.7925 26.075 71.9892 23.6675 69.9285 21.2415 67.8518 20.0279 68.7475 19.3462 69.5898ZM30.1883 77.5197C29.8102 78.1495 29.936 79.0832 31.5662 80.2117 33.1406 81.3016 34.0611 80.6392 34.3674 80.1449 34.7201 79.5757 34.4377 78.5202 32.8001 77.4511 31.1497 76.3737 30.513 76.9791 30.1883 77.5197ZM30.1122 72.4371C29.7276 72.8601 29.7532 73.6445 30.6033 74.4616 31.4244 75.2507 32.1776 74.8191 32.4858 74.4874 32.8407 74.1053 32.8741 73.3728 32.0065 72.5964 31.1322 71.814 30.4424 72.074 30.1122 72.4371Z" fill="#72412B" fill-opacity="0.5" transform="matrix(1 0 0 1.00259 1322.33 799.102)"/></g></svg>