<svg width="182" height="134" xmlns="http://www.w3.org/2000/svg" xmlns:xlink="http://www.w3.org/1999/xlink" xml:space="preserve" overflow="hidden"><defs><clipPath id="clip0"><rect x="1318" y="465" width="182" height="134"/></clipPath><clipPath id="clip1"><rect x="1318" y="482" width="182" height="117"/></clipPath></defs><g clip-path="url(#clip0)" transform="translate(-1318 -465)"><path d="M56.5715 89.4938C55.6434 90.8859 29.6786 119.172 29.6786 119.172 29.6786 119.172 14.3942 116.387 11.1444 127.995 11.1444 127.995 25.0352 133.102 32.9299 130.317 32.9299 130.317 58.8931 121.881 70.9278 110.35 70.9278 110.35 106.604 119.21 134.891 106.21L134.891 116.851C134.891 116.851 124.714 117.315 124.25 125.208 124.25 125.208 149.285 131.709 149.285 115.921L154.509 97.1934 164.105 78.3871 146.499 63.5683 56.5715 89.4938" fill="#D2AB4D" transform="matrix(1.00415 0 0 1 1318.35 465.89)"/><path d="M120.598 67.5254C117.945 67.1218 115.391 66.7152 113.093 66.6684 115.395 66.7213 117.95 67.1264 120.598 67.5254" fill="#95471D" transform="matrix(1.00415 0 0 1 1318.35 465.89)"/><path d="M112.668 66.6638C112.76 66.6638 112.854 66.6654 112.948 66.6669 112.854 66.6654 112.76 66.6638 112.668 66.6638" fill="#95471D" transform="matrix(1.00415 0 0 1 1318.35 465.89)"/><path d="M143.21 60.5875C137.835 69.9348 128.764 68.7558 120.598 67.5254 117.945 67.1218 115.391 66.7152 113.093 66.6684 113.045 66.6669 112.996 66.6684 112.948 66.6669 112.854 66.6654 112.76 66.6638 112.668 66.6638 111.849 66.6608 111.063 66.7062 110.319 66.818 101.07 68.2116 104.322 80.2448 79.7505 81.6384 79.424 81.6565 79.1036 81.6641 78.7877 81.6671 71.7954 81.7276 67.3319 77.9851 64.5417 72.7069 60.973 75.7042 56.0288 77.7886 49.2587 78.3871 49.2587 78.3871 44.8255 79.7505 38.7734 80.733 29.662 82.2113 16.8806 82.831 10.0213 76.6459 10.2148 76.4917 10.3312 76.4146 10.3312 76.4146 15.5943 82.1024 27.2405 80.3612 27.2405 80.3612 45.0401 79.0462 37.5732 57.5313 37.5732 57.5313 35.4057 53.0043 33.5874 48.0117 33.6252 47.3935 35.909 32.6124 45.3122 24.0996 52.7791 19.5711 57.7716 20.3843 63.1889 22.6667 68.7996 27.3886 68.7996 27.3886 74.9273 44.0365 72.2957 58.3414 79.3711 61.1801 89.3199 61.9252 103.354 57.9953L143.674 36.6754C143.674 36.6754 145.066 36.4426 147.35 36.4426 148.898 43.0207 148.201 51.9598 143.21 60.5875ZM27.4733 42.3632C27.4733 42.3632 30.6853 28.5102 41.5576 20.1137 32.0774 22.5896 25.9255 29.1677 25.9255 29.1677 21.9789 35.7458 14.704 47.6248 14.704 47.6248 13.7366 48.2052 12.8086 48.7479 11.9561 49.289 15.4008 49.0184 23.2562 47.8183 27.4733 42.3632ZM167.045 16.5919C169.444 11.3303 170.954 5.71957 170.605 0.0302303 170.605 0.0302303 175.248-0.897839 174.32 7.46084 174.281 7.46084 174.94 11.1746 173.198 18.179L167.045 16.5919" fill="#95471D" transform="matrix(1.00415 0 0 1 1318.35 465.89)"/><g clip-path="url(#clip1)"><path d="M52.8184 19.6104C48.7161 18.9136 44.9252 19.2627 41.5576 20.1515 30.6853 28.5495 27.4733 42.401 27.4733 42.401 23.2562 47.8576 15.4008 49.0577 11.9954 49.3283 10.9509 49.4054 10.3312 49.4054 10.3312 49.4054 10.3312 49.4054 0 50.9139 0 67.6312 0 82.5665 8.24229 77.8067 10.0213 76.6459 10.2148 76.4917 10.3312 76.4146 10.3312 76.4146 15.5943 82.1024 27.2405 80.3612 27.2405 80.3612 45.0401 79.0462 37.5732 57.5313 37.5732 57.5313 35.4057 53.0043 33.5874 48.0117 33.6252 47.3935 35.909 32.6124 45.3122 24.0996 52.8184 19.6104ZM180.744 89.9956C180.744 89.9956 180.744 115.032 170.103 126.601 170.103 126.601 153.425 132.173 152.031 123.352 152.031 123.352 148.781 119.172 158.068 116.851L162.247 102.03C162.247 102.03 151.142 98.3149 149.285 87.6739 149.285 87.6739 139.534 102.03 106.643 104.816 106.643 104.816 108.965 114.065 94.6087 120.1L71.4312 132.135 47.788 132.135C47.788 132.135 47.324 121.919 64.4661 122.384L79.7505 108.028C79.7505 108.028 58.8206 111.226 38.7734 80.733 44.8255 79.7505 49.2587 78.3871 49.2587 78.3871 56.0288 77.7886 60.973 75.7042 64.5417 72.7069 67.3319 77.9851 71.7954 81.7276 78.7877 81.6671 79.1293 81.6656 79.4739 81.6581 79.8276 81.6384 104.359 80.2448 101.11 68.2116 110.396 66.818 111.116 66.7092 111.876 66.6638 112.668 66.6638 112.76 66.6638 112.854 66.6654 112.948 66.6669 112.996 66.6684 113.045 66.6684 113.093 66.6684 115.395 66.7213 117.95 67.1264 120.598 67.5254 128.769 68.7664 137.874 69.9816 143.287 60.5875 148.24 51.9205 148.975 43.0207 147.427 36.4426 148.858 36.4426 150.639 36.559 152.651 36.9067 157.255 32.0698 163.292 24.8342 167.045 16.6312L173.198 18.2168C171.805 23.7504 168.903 31.3352 162.982 40.7761 172.462 46.5803 181.711 59.93 180.744 89.9956" fill="#EADAA0" transform="matrix(1.00415 0 0 1 1318.35 465.89)"/></g><path d="M47.4011 45.9228C47.4011 45.9228 47.2076 28.5495 35.6763 45.9228 35.6763 45.9228 44.2662 36.559 47.4011 45.9228ZM25.6549 43.2913C25.6549 43.2913 25.5385 31.7992 17.916 43.2913 17.916 43.2913 23.6038 37.1001 25.6549 43.2913ZM25.0745 74.4028C25.0745 74.4028 23.2562 77.5362 17.1799 77.8067 17.1799 77.8067 13.0791 78.0002 10.0999 76.8016 10.0606 76.8016 10.0213 76.8016 9.98355 76.8016 9.86717 76.8016 9.75078 76.7623 9.63439 76.6852 9.44092 76.5688 9.24745 76.4146 9.05397 76.2589 6.15186 73.706 6.19116 68.1723 6.53881 64.9997 1.27723 66.2376 0.0770873 60.9745 0.0770873 60.9745-0.270561 55.4801 2.39877 55.0554 2.39877 55.0554 17.6832 55.0554 16.1354 62.0976 16.1354 62.0976 14.704 67.9396 8.1259 64.4963 8.1259 64.4963 8.04881 64.5356 8.00952 64.5356 7.93243 64.5734 7.58478 67.3213 7.46839 73.2027 10.0606 75.3309 10.177 75.408 10.2934 75.5243 10.4083 75.5636 10.4476 75.5636 10.4476 75.6014 10.4476 75.6014 11.2215 76.0655 13.1562 76.9557 17.1028 76.7623 17.1028 76.7623 21.5527 76.531 24.2613 73.4732 24.2613 73.4732 24.7647 72.9699 25.1516 73.4732 25.0745 73.5125 25.4615 73.9765 25.0745 74.4028" fill="#12100F" transform="matrix(1.00415 0 0 1 1318.35 465.89)"/><path d="M9.89286 76.3889C8.57029 77.2505 3.68507 80.0952 1.25758 75.3838 1.1291 86.1095 5.14671 92.0089 5.14671 92.0089 8.1652 99.3609 19.7736 95.8784 19.7736 95.8784 27.0546 93.8424 28.941 87.1403 29.1435 81.4328 22.0001 81.6581 14.571 80.606 9.89286 76.3889ZM12.2538 49.0698C15.6593 48.7992 23.5131 47.5991 27.7318 42.144 27.7318 42.144 29.7965 33.2548 36.2068 25.401 36.2023 25.395 36.1978 25.3874 36.1932 25.3798 29.7935 33.2291 27.7318 42.1047 27.7318 42.1047 23.5131 47.5613 15.6593 48.7599 12.2145 49.032 13.0655 48.4894 13.9951 47.9483 14.9625 47.3678 14.9625 47.3678 22.2374 35.4888 26.184 28.9107 26.184 28.9107 28.8911 26.0177 33.48 23.3469 30.4298 22.4067 27.2405 24.7949 27.2405 24.7949L13.853 41.2795C11.9002 44.1997 10.239 47.0096 8.82724 49.7077 9.87775 49.2527 10.5897 49.1469 10.5897 49.1469 10.5897 49.1469 11.2094 49.1469 12.2538 49.0698ZM80.9114 43.6404C98.9422 77.382 84.2004 94.9488 84.2004 94.9488 80.4458 101.991 69.2636 97.3476 69.2636 97.3476 56.3009 92.2795 63.1118 73.242 63.1118 73.242 67.5224 61.6713 56.0681 30.7548 60.0162 25.9179 63.9628 21.0811 69.2636 25.9179 69.2636 25.9179L80.9114 43.6404" fill="#5F2C17" transform="matrix(1.00415 0 0 1 1318.35 465.89)"/></g></svg>