<svg width="130" height="149" xmlns="http://www.w3.org/2000/svg" xmlns:xlink="http://www.w3.org/1999/xlink" xml:space="preserve" overflow="hidden"><defs><clipPath id="clip0"><rect x="898" y="623" width="130" height="149"/></clipPath></defs><g clip-path="url(#clip0)" transform="translate(-898 -623)"><path d="M40.7374 110.071 25.9272 118.206 13.1152 106.312C12.2033 105.462 10.8548 106.68 11.608 107.674L22.1501 118.458 11.9027 113.784C10.7775 113.254 9.86508 114.818 10.879 115.537L21.7939 121.511C23.6718 122.538 25.0849 124.246 25.7437 126.282L28.1953 133.862C28.6949 134.87 30.2206 134.444 30.1241 133.322L28.3263 121.722 43.0091 114.413C44.4001 113.721 44.804 111.925 43.8433 110.704L43.8433 110.704C43.1022 109.762 41.788 109.494 40.7371 110.071Z" fill="#E7A65F" transform="matrix(1 0 0 1.00187 912.289 623.015)"/><path d="M14.9992 18.4845C14.9992 18.4845-14.3024 34.7984 9.00324 59.8923 10.5265 61.5324 13.1524 61.433 14.5378 59.6748L24.3491 47.2247C24.3491 47.2247 22.3929 47.5775 14.9992 18.4845Z" fill="#E7A65F" transform="matrix(1 0 0 1.00187 912.289 623.015)"/><path d="M41.0176 0C28.7026 0 11.4179 6.32389 11.4179 28.668 11.4179 60.7093 42.3877 56.0714 42.3877 56.0714 42.3877 56.0714 24.2065 70.5011 24.2065 92.7498 24.2065 113.829 41.1919 120.575 57.5788 120.575 74.3755 120.575 82.6698 107.927 82.6698 93.1713 82.6698 70.8269 82.7732 33.3057 69.3165 16.0202 62.3003 7.00829 54.3812 0 41.0176 0Z" fill="#FF535E" transform="matrix(1 0 0 1.00187 912.289 623.015)"/><path d="M56.3698 113.686 53.431 131.416 35.0636 134.305C33.7531 134.508 33.8844 136.436 35.2105 136.46L51.1585 134.739 40.5125 140.232C39.3301 140.824 40.0369 142.615 41.3052 142.24L53.4761 137.044C55.5699 136.15 57.9266 136.091 60.0626 136.88L68.0105 139.814C69.1826 140.06 69.8291 138.504 68.8278 137.847L57.9482 131.722 61.4936 114.641C61.8295 113.023 60.5941 111.505 58.9413 111.505L58.9413 111.505C57.6661 111.505 56.5783 112.427 56.3698 113.685Z" fill="#E7A65F" transform="matrix(1 0 0 1.00187 912.289 623.015)"/><path d="M43.3361 11.1722C28.8154 2.15287 14.4806 17.8296 11.4361 27.4785 11.425 27.8702 11.4179 28.266 11.4179 28.668 11.4179 60.7093 42.3877 56.0714 42.3877 56.0714 42.3877 56.0714 71.0518 28.387 43.3361 11.1719Z" fill="#FFB6B8" transform="matrix(1 0 0 1.00187 912.289 623.015)"/><path d="M58.0051 103.814 109.586 125.599C115.7 128.181 114.578 137.304 107.994 138.141 107.148 138.249 106.26 138.201 105.333 137.952 105.333 137.952 103.992 144.756 95.5164 141.31 95.5164 141.31 95.1961 148.703 88.9581 145.632L51.734 111.222 58.0051 103.814Z" fill="#FF535E" transform="matrix(1 0 0 1.00187 912.289 623.015)"/><path d="M37.4213 28.8196C37.5561 31.539 36.9136 34.0868 35.6879 36.1514 33.9901 39.0311 31.2214 40.9857 27.9907 41.146 22.4593 41.4202 17.7112 36.3433 17.3875 29.8125 17.0637 23.2816 21.2867 17.7605 26.8181 17.4863 30.0487 17.3263 32.9972 18.9972 34.9713 21.6953 36.3953 23.6283 37.2866 26.1004 37.4213 28.8196Z" fill="#FFFFFF" transform="matrix(1 0 0 1.00187 912.289 623.015)"/><path d="M37.4213 28.8196C37.5561 31.539 36.9136 34.0868 35.6879 36.1514 34.3217 37.7335 32.4842 38.7332 30.4159 38.8358 25.8837 39.0604 22.0206 34.9184 21.757 29.596 21.4931 24.2737 24.9278 19.7702 29.46 19.5456 31.5282 19.4431 33.4557 20.2561 34.9716 21.6953 36.3955 23.6283 37.2869 26.1004 37.4216 28.8196Z" fill="#0E0606" transform="matrix(1 0 0 1.00187 912.289 623.015)"/><path d="M46.7238 61.3146C41.0801 79.2747 30.5884 120.575 82.1657 126.899 82.1657 126.899 87.496 67.9121 81.3574 55.668 75.2189 43.4239 52.1115 44.1702 46.7238 61.3149Z" fill="#FADC56" transform="matrix(1 0 0 1.00187 912.289 623.015)"/><path d="M83.0966 114.66C49.7164 111.088 44.8209 76.7409 44.3094 72.0861 44.2846 71.8604 44.0207 71.7491 43.8433 71.8907L43.8391 71.8941C39.4023 92.1948 39.8123 121.706 82.166 126.899 82.166 126.899 82.6116 121.967 83.0966 114.661Z" fill="#6C8DBD" transform="matrix(1 0 0 1.00187 912.289 623.015)"/><path d="M72.3639 125.532C72.3268 125.532 72.2891 125.527 72.2514 125.517 64.3019 123.395 57.731 120.07 52.7213 115.634 45.3305 109.09 41.5829 100.304 41.5829 89.5199 41.5829 60.3473 52.4624 51.445 52.9256 51.0802 53.1141 50.9323 53.3873 50.9644 53.5362 51.1529 53.6849 51.3412 53.653 51.6151 53.4648 51.7638 53.3546 51.8513 42.4537 60.8266 42.4534 89.5199 42.4534 101.902 47.6618 118.053 72.4757 124.676 72.708 124.738 72.8459 124.977 72.7842 125.209 72.732 125.403 72.5561 125.532 72.3637 125.532Z" fill="#EE3B47" transform="matrix(1 0 0 1.00187 912.289 623.015)"/><path d="M42.3877 56.5069C42.281 56.5069 42.1742 56.4679 42.0898 56.389 41.9145 56.2245 41.9056 55.949 42.0701 55.774 50.3467 46.9434 53.2744 41.5639 54.6008 32.7491 56.1947 22.1559 48.2961 11.3304 37.3525 9.10949 32.0294 8.03016 27.1429 10.2455 23.9813 12.2945 20.5335 14.5294 18.3389 17.0466 18.3173 17.0716 18.1599 17.2533 17.8855 17.2736 17.7033 17.1159 17.5217 16.9591 17.5016 16.6841 17.6588 16.5022 17.7492 16.398 26.8154 6.08213 37.5257 8.25609 48.9088 10.5666 57.1225 21.8422 55.4618 32.8786 54.1046 41.8992 51.1245 47.3874 42.7054 56.3695 42.6198 56.461 42.504 56.5072 42.3877 56.5072Z" fill="#EE3B47" transform="matrix(1 0 0 1.00187 912.289 623.015)"/></g></svg>