<svg width="155" height="145" xmlns="http://www.w3.org/2000/svg" xmlns:xlink="http://www.w3.org/1999/xlink" xml:space="preserve" overflow="hidden"><defs><clipPath id="clip0"><rect x="658" y="284" width="155" height="145"/></clipPath></defs><g clip-path="url(#clip0)" transform="translate(-658 -284)"><path d="M31.6585 8.6793C25.8793 16.2733 27.6245 22.1547 26.5516 27.9369L18.465 33.2926C18.465 33.2926 6.77109 21.8985 16.2777 7.81272 25.7843-6.27304 37.0264 1.62589 31.6585 8.6793ZM34.0869 90.2603C64.5088 95.5401 73.1012 80.6605 76.6703 69.3378 69.409 67.2455 67.5629 56.4151 73.9627 48.7846 68.7936 50.7537 60.3015 48.5384 60.7938 38.5695 53.0402 45.0924 43.6866 40.1695 41.9636 32.0466 34.8254 40.6617 26.7648 27.044 23.9949 30.0774-2.95812 59.5945 4.3032 85.0912 34.0869 90.2603ZM110.587 66.7367C109.519 68.3141 106.366 71.6335 98.7107 71.8463 97.5669 71.8781 96.3229 71.8406 94.9698 71.7178 75.7875 69.9733 73.9343 51.4767 73.918 51.2899 73.8952 51.0314 74.086 50.8032 74.345 50.7802 74.3457 50.7801 74.3463 50.7804 74.347 50.7804L74.3314 50.7349C82.6996 52.6032 84.1028 49.1173 84.3338 48.0724 84.3214 47.977 84.3297 47.8781 84.3794 47.7872 84.504 47.5598 84.7894 47.4755 85.018 47.6006 86.64 48.4886 88.0787 49.5445 89.6018 50.6627 93.5225 53.5407 97.5768 56.5169 105.198 56.7751 107.974 56.8691 110.17 58.1083 111.222 60.1748 112.246 62.1855 112.008 64.6386 110.587 66.7367ZM58.416 107.053C58.416 107.053 60.8941 121.852 61.3856 125.62 61.8771 129.388 61.3856 132.009 61.3856 132.009 61.3856 132.009 58.793 134.467 60.5807 135.941 62.3686 137.416 72.8537 138.071 73.509 133.648 74.0915 129.716 75.4495 115.956 75.8596 109.722L58.416 107.053ZM107.241 107.67C107.241 107.67 109.719 122.469 110.211 126.237 110.702 130.005 110.211 132.627 110.211 132.627 110.211 132.627 107.618 135.084 109.406 136.559 111.194 138.033 121.679 138.688 122.334 134.265 122.916 130.333 124.275 116.573 124.685 110.339L107.241 107.67Z" fill="#C0B0A4" transform="matrix(1 0 0 1.00037 661.122 290.283)"/><path d="M56.572 108.487C56.162 114.721 54.8039 128.482 54.2214 132.413 53.5661 136.837 43.081 136.181 41.2931 134.707 39.5053 133.232 42.098 130.775 42.098 130.775 42.098 130.775 42.5895 128.154 42.098 124.386 41.6065 120.617 39.1284 105.818 39.1284 105.818L56.572 108.487ZM87.2263 106.436C87.2263 106.436 89.7044 121.235 90.1959 125.003 90.6874 128.771 90.1959 131.392 90.1959 131.392 90.1959 131.392 87.6032 133.85 89.391 135.324 91.1789 136.799 101.664 137.454 102.319 133.03 102.902 129.099 104.26 115.338 104.67 109.104L87.2263 106.436ZM38.3262 70.9937C40.022 70.1229 40.7215 68.0298 40.7505 67.941 40.822 67.7217 40.7055 67.4886 40.4902 67.4199 40.2711 67.3514 40.0415 67.4732 39.9692 67.6924 39.9632 67.7109 39.345 69.5457 37.9608 70.254 37.3093 70.5871 36.5747 70.6196 35.7749 70.348 32.985 69.4016 34.0709 65.5575 34.1184 65.3944 34.1833 65.1729 34.0594 64.9432 33.8417 64.8815 33.6177 64.8202 33.3946 64.9496 33.3297 65.1707 32.8459 66.816 32.6769 70.1805 35.5001 71.1386 35.7525 71.2241 36.0004 71.2854 36.2442 71.3225 36.9828 71.435 37.6808 71.3252 38.3262 70.9937Z" fill="#897666" transform="matrix(1 0 0 1.00037 661.122 290.283)"/><path d="M141.792 63.0996C146.816 56.4372 135.751 46.4773 129.559 50.3209 131.853 43.7677 117.217 38.1975 113.677 44.9751 114.036 39.7056 99.3399 37.2866 95.539 44.063 96.8378 40.0324 92.6472 29.5421 84.0142 32.0812 89.0383 27.6032 76.8057 14.2237 70.7986 21.596 73.7476 16.4627 60.1223 7.45199 53.2142 15.0428 53.733 10.7286 36.8312 6.11406 33.145 17.3364 28.3393 13.0768 13.813 22.3332 17.6084 28.1492 9.22575 25.3641-0.686002 41.0918 6.3587 46.4982-0.631365 48.901-2.85307 67.25 4.81097 71.1819 0.242372 76.6429 1.33457 90.1065 12.6934 91.457 8.65229 99.1422 17.7176 107.989 25.363 105.04 24.38 112.467 38.251 115.744 42.1829 111.593 42.0736 119.894 59.8765 119.457 60.641 112.904 61.5148 120.331 79.973 119.785 79.8638 113.559 81.8297 121.314 99.8511 119.348 99.1957 113.122 102.582 121.095 119.511 116.945 118.309 111.593 123.77 117.6 139.28 109.627 134.692 101.982 142.119 104.276 151.731 88.3294 142.338 82.65 151.731 81.667 150.529 64.301 141.792 63.0996ZM34.9744 86.9096C8.54314 82.3223 2.09916 59.6956 26.0183 33.501 26.1993 36.3057 36.3567 42.4494 41.9644 35.2485 43.4935 42.457 51.7943 46.8259 58.6751 41.0372 58.2382 49.884 65.7744 51.85 70.3617 50.1024 64.6822 56.8741 66.3205 66.4854 72.7645 68.3422 69.5971 78.3904 61.972 91.5951 34.9744 86.9096ZM108.65 65.9592C107.699 67.3632 104.893 70.3179 98.0785 70.5073 97.0604 70.5356 95.9531 70.5022 94.7487 70.3929 77.6743 68.8401 76.0247 52.376 76.0102 52.2097 75.9899 51.9796 76.1597 51.7765 76.3902 51.756 76.3909 51.756 76.3914 51.7563 76.392 51.7562L76.3781 51.7157C83.8268 53.3787 85.0758 50.2759 85.2814 49.3458 85.2704 49.2609 85.2778 49.1728 85.322 49.092 85.4329 48.8895 85.6869 48.8145 85.8904 48.9259 87.3342 49.7163 88.6148 50.6562 89.9705 51.6515 93.4604 54.2133 97.0692 56.8624 103.853 57.0922 106.324 57.1759 108.279 58.2789 109.215 60.1184 110.126 61.9081 109.915 64.0916 108.65 65.9592Z" fill="#F9F1E9" transform="matrix(1 0 0 1.00037 661.122 290.283)"/><path d="M51.8056 68.0555C55.3995 68.4688 59.6867 66.8704 60.129 59.7317 60.5567 52.8298 55.7385 51.4906 52.8774 51.2908 50.0163 51.091 45.1537 52.7853 44.9471 59.42 44.7405 66.0546 48.7203 67.7007 51.8056 68.0555ZM33.7973 55.375C36.0611 49.188 32.2092 45.829 29.5002 44.9547 26.7911 44.0804 21.8582 43.5317 19.6992 50.0466 17.4662 56.7851 20.8235 59.843 24.2864 60.7917 27.2592 61.6061 31.5335 61.562 33.7973 55.375Z" fill="#F1F1F2" transform="matrix(1 0 0 1.00037 661.122 290.283)"/><path d="M54.3704 131.325C43.9275 133.489 42.1454 130.47 42.1454 130.47 42.1454 130.47 39.5053 133.232 41.2932 134.707 43.081 136.181 53.5662 136.837 54.2215 132.413 54.2666 132.109 54.3168 131.739 54.3704 131.325ZM73.658 132.559C63.215 134.723 61.433 131.704 61.433 131.704 61.433 131.704 58.7929 134.467 60.5807 135.941 62.3686 137.416 72.8537 138.071 73.509 133.648 73.5542 133.343 73.6044 132.973 73.658 132.559ZM102.468 131.942C92.0253 134.106 90.2433 131.087 90.2433 131.087 90.2433 131.087 87.6032 133.85 89.391 135.324 91.1789 136.799 101.664 137.454 102.319 133.03 102.364 132.726 102.415 132.356 102.468 131.942ZM122.483 133.176C112.04 135.341 110.258 132.321 110.258 132.321 110.258 132.321 107.618 135.084 109.406 136.559 111.194 138.033 121.679 138.688 122.334 134.265 122.379 133.96 122.429 133.591 122.483 133.176ZM49.5263 66.1174C48.3739 65.9885 47.0637 65.6193 46.0328 64.6783 45.2978 63.5954 44.7184 61.746 44.7901 59.4436 44.884 56.4283 46.1254 54.2743 47.4901 53.152 48.5196 52.6103 49.6095 52.4299 50.4679 52.4854 52.7005 52.6299 56.4541 53.6882 56.0771 59.3004 55.6872 65.105 52.3298 66.4308 49.5263 66.1174ZM23.5906 51.1482C25.3192 45.8399 29.1678 46.2535 31.2776 46.9463 32.0887 47.2126 33.0257 47.7819 33.7736 48.6616 34.6153 50.2001 34.9619 52.6431 33.9331 55.4549 33.1475 57.6019 31.9299 59.0911 30.8524 59.8165 29.5549 60.3019 28.2115 60.1573 27.1025 59.8497 24.4044 59.1015 21.8027 56.6385 23.5906 51.1482Z" fill="#231F20" transform="matrix(1 0 0 1.00037 661.122 290.283)"/><path d="M45.1035 88.3641C42.5812 88.3641 39.8333 88.1381 36.8408 87.6306 36.6126 87.592 36.4593 87.3759 36.4977 87.148 36.5362 86.9198 36.7508 86.7661 36.9806 86.8052 49.3884 88.9083 59.4399 86.3626 66.0467 79.4424 71.0333 74.2189 72.3424 68.3135 72.3551 68.2544 72.4034 68.0285 72.6254 67.8839 72.8519 67.9326 73.078 67.981 73.2223 68.2037 73.1737 68.4298 73.1201 68.6802 71.8011 74.6275 66.6523 80.0205 62.791 84.0652 56.0983 88.3641 45.1035 88.3641ZM45.1035 88.3641C42.5812 88.3641 39.8333 88.1381 36.8408 87.6306 36.6126 87.592 36.4593 87.3759 36.4977 87.148 36.5362 86.9198 36.7508 86.7661 36.9806 86.8052 49.3884 88.9083 59.4399 86.3626 66.0467 79.4424 71.0333 74.2189 72.3424 68.3135 72.3551 68.2544 72.4034 68.0285 72.6254 67.8839 72.8519 67.9326 73.078 67.981 73.2223 68.2037 73.1737 68.4298 73.1201 68.6802 71.8011 74.6275 66.6523 80.0205 62.791 84.0652 56.0983 88.3641 45.1035 88.3641Z" fill="#897666" transform="matrix(1 0 0 1.00037 661.122 290.283)"/><path d="M129.021 55.7161C127.965 57.2468 127.808 59.3027 130.65 61.3285 133.395 63.2849 135.578 61.5125 136.426 60.3081 137.403 58.9212 137.294 56.6404 134.41 54.7504 131.503 52.8458 129.928 54.4021 129.021 55.7161ZM116.853 55.2505C116.451 56.4939 116.782 57.9211 119.18 58.7501 121.497 59.5507 122.627 57.926 122.955 56.9443 123.334 55.8139 122.77 54.2854 120.372 53.5567 117.955 52.8223 117.199 54.1831 116.853 55.2505ZM122.435 64.9013C122.033 65.809 122.202 66.9323 124.05 67.8116 125.836 68.6607 126.839 67.5368 127.165 66.8213 127.54 65.9974 127.193 64.7728 125.338 63.9701 123.469 63.1612 122.779 64.1221 122.435 64.9013Z" fill="#C0B0A4" fill-opacity="0.2" transform="matrix(1 0 0 1.00037 661.122 290.283)"/></g></svg>