<svg width="152" height="157" xmlns="http://www.w3.org/2000/svg" xmlns:xlink="http://www.w3.org/1999/xlink" xml:space="preserve" overflow="hidden"><defs><clipPath id="clip0"><rect x="1097" y="788" width="152" height="157"/></clipPath></defs><g clip-path="url(#clip0)" transform="translate(-1097 -788)"><path d="M94.8952 20.6736C91.2299 17.0155 100.732 7.00245 107.09 2.08687 113.448-2.82871 113.768 1.95684 117.515 8.53272 121.263 15.1086 118.613 20.8724 118.613 20.8724 118.149 22.2649 100.074 23.7481 94.8952 20.6736ZM74.0518 31.1083 68.1495 12.6595C68.1495 12.6595 52.2875-8.38813 20.7997 5.88352-10.4829 20.0623-3.55773 66.827 22.2326 55.5039-3.21198 84.787 3.36746 143.978 56.8584 138.018L74.0518 31.1083Z" fill="#72412B" transform="matrix(1 0 0 1.00269 1107.55 796.398)"/><path d="M139.71 142.984C138.043 144.954 113.709 145.67 111.376 144.238 109.876 145.491 111.042 146.387 88.7084 146.566 53.7074 148.178 43.9632 129.671 45.2072 107.522 46.6878 81.1604 64.8744 70.986 65.7077 49.4942 66.1317 38.5616 67.6482 31.6416 70.4533 26.6399 65.6878 24.6017 66.425 12.21 68.1494 4.89851 70.0079-2.98185 73.9921 0.421036 82.4098 2.92844 90.8274 5.43584 92.9241 11.5252 92.9241 11.5252 92.9242 11.5254 92.924 11.5258 92.9242 11.5261 113.807 7.29684 131.025 25.9426 132.265 28.3008 134.488 28.4756 137.014 30.1679 138.653 31.9636 140.374 33.848 138.468 35.7683 138.468 38.0916 138.468 42.6288 135.542 45.1362 135.542 45.1362 135.209 53.7329 131.036 51.698 123.753 62.7475 118.4 70.8684 118.11 87.2244 123.285 83.5684 127.887 79.7272 133.451 83.9705 132.928 93.3856 132.807 95.5652 131.611 99.0117 129.967 102.217 137.807 115.821 131.786 132.839 124.543 134.745 133.71 134.566 141.377 141.014 139.71 142.984ZM22.2197 55.4713C24.2215 52.8524 29.1253 45.2411 25.7902 37.1411 22.5762 29.3363 15.9411 29.246 15.8745 29.246 15.6222 29.246 15.418 29.4503 15.4173 29.7028 15.4169 29.9551 15.6211 30.1602 15.8737 30.1614 16.1211 30.1625 21.9713 30.2711 24.9436 37.4897 28.8237 46.9127 20.6464 56.0772 20.5653 56.1652 20.699 56.1656 21.8855 55.7178 22.2197 55.4713Z" fill="#8C5C42" transform="matrix(1 0 0 1.00269 1107.55 796.398)"/><path d="M104.382 138.018C100.5 136.515 94.1037 136.666 89.2156 136.715 93.514 120.955 88.6929 111.467 87.1199 108.238 85.547 105.008 85.3948 96.9288 85.3948 96.9288 85.3948 96.9288 89.3946 95.8808 90.9468 97.8136 99.4199 108.364 104.007 114.512 108.261 112.188 112.976 109.612 108.916 96.9288 104.44 90.2261 98.9734 82.0425 89.5016 82.8389 85.9321 83.0808 87.7564 73.7236 94.8274 64.5982 99.3645 59.8222 103.902 55.0463 102.111 51.2255 107.42 40.5989 112.728 29.9724 125.579 33.1187 125.579 33.1187 125.579 33.1187 130.528 34.3902 133.274 32.838 136.18 30.2878 138.927 32.3246 138.963 32.3515 140.304 34.1017 141.154 36.2027 141.154 38.211 141.154 42.7482 137.876 45.3749 137.876 45.3749 137.543 53.9717 132.826 51.8771 125.543 62.9266 120.249 70.958 120.841 76.6984 123.206 83.3465 119.303 87.2498 117.155 94.9854 117.044 103.522 116.894 115.006 122.498 110.457 126.488 107.84 126.269 131.739 107.722 137.79 104.382 138.018ZM73.3852 22.5401C75.7722 19.8811 78.7474 17.7815 82.3749 15.6445 84.2847 14.5194 86.1815 13.6239 88.0577 12.9242 87.633 12.0027 85.9725 9.08113 81.4921 7.74658 76.137 6.15141 73.6024 3.98659 72.4201 8.99989 71.3875 13.3779 70.9097 20.6225 73.3852 22.5401Z" fill="#CC956E" transform="matrix(1 0 0 1.00269 1107.55 796.398)"/><path d="M107.37 31.9634C107.048 24.875 101.481 23.1239 98.2214 23.3726 94.9618 23.6214 89.4857 25.1119 90.0639 32.4832 90.6619 40.1075 95.5711 41.7632 99.6634 41.2773 103.177 40.8602 107.693 39.0519 107.37 31.9634Z" fill="#F1F1F2" transform="matrix(1 0 0 1.00269 1107.55 796.398)"/><path d="M107.186 104.116C107.25 104.246 108.681 107.192 109.43 111.104 109.212 111.426 108.955 111.706 108.652 111.934 108.651 111.931 108.649 111.928 108.648 111.925 107.968 107.822 106.38 104.552 106.364 104.52 106.253 104.293 106.346 104.019 106.574 103.907 106.801 103.796 107.075 103.89 107.186 104.116ZM107.534 112.121C105.75 110.024 103.229 105.9 103.204 105.858 103.072 105.642 102.789 105.574 102.575 105.706 102.359 105.837 102.291 106.119 102.422 106.335 102.526 106.505 104.96 110.487 106.786 112.653 107.073 112.624 107.357 112.56 107.639 112.46 107.651 112.342 107.617 112.219 107.534 112.121ZM119.863 103.239C119.954 103.004 119.837 102.739 119.601 102.647 119.365 102.556 119.101 102.673 119.009 102.909 118.964 103.024 118.029 105.477 117.729 109.024 117.96 109.608 118.243 110.041 118.568 110.347 118.707 106.278 119.851 103.27 119.863 103.239ZM123.779 103.876C123.547 103.779 123.278 103.888 123.18 104.122 123.163 104.164 121.383 108.402 119.901 110.719 119.856 110.79 119.84 110.869 119.837 110.948 120.164 110.988 120.511 110.964 120.871 110.892 122.344 108.473 123.954 104.644 124.025 104.475 124.122 104.242 124.012 103.974 123.779 103.876ZM111.263 144.335C111.45 143.579 111.212 142.79 110.659 142.025 108.702 139.318 102.041 136.624 89.2351 137.173 89.0939 137.182 88.9576 137.119 88.866 137.011 88.7748 136.903 88.7386 136.759 88.7676 136.62 91.7695 122.513 90.3316 112.006 84.4946 105.392 77.1013 97.0141 65.0183 97.9393 64.8972 97.9487 64.6473 97.9738 64.4238 97.7834 64.4024 97.5317 64.3809 97.2801 64.5673 97.0584 64.819 97.0369 64.9446 97.0244 77.4709 96.0576 85.1749 104.779 91.1384 111.531 92.688 122.112 89.7836 136.235 102.578 135.777 109.336 138.632 111.401 141.489 112.102 142.46 112.343 143.489 112.108 144.492 111.9 144.478 111.396 144.377 111.263 144.335ZM109.257 145.527C106.476 141.525 98.7883 141.471 98.7077 141.471 98.4548 141.471 98.25 141.266 98.25 141.014 98.25 140.761 98.4552 140.556 98.7077 140.556 99.0632 140.556 107.207 140.61 110.146 145.21 110.008 145.295 109.426 145.502 109.257 145.527ZM136.868 143.92C134.498 139.737 127.046 138.776 126.969 138.766 126.718 138.736 126.54 138.508 126.571 138.257 126.601 138.006 126.826 137.822 127.08 137.858 127.422 137.9 135.364 138.921 137.807 143.733 137.649 143.799 137.065 143.89 136.868 143.92ZM117.384 42.5415C117.604 42.5057 117.812 42.6554 117.849 42.8758 117.877 43.047 118.607 47.0626 123.983 46.8466 129.19 46.6326 130.372 42.7283 130.498 42.2496 130.452 38.5475 130.314 36.243 130.313 36.2198 130.299 35.9965 130.469 35.8043 130.692 35.7908 130.908 35.7792 131.108 35.9471 131.121 36.1705 131.123 36.194 131.266 38.5746 131.309 42.3612 131.422 43.9698 132.044 45.0668 133.159 45.6214 134.864 46.4705 137.261 45.7757 137.876 45.3748 137.87 45.6194 137.851 46.2311 137.814 46.3773 137.192 46.6211 136.111 46.8293 135.195 46.8398 134.385 46.8492 133.538 46.7153 132.798 46.3469 132.046 45.9726 131.16 45.2278 130.734 43.7536 129.914 45.2593 128.029 47.4912 124.016 47.6562 123.904 47.6609 123.795 47.6637 123.686 47.6649 117.873 47.7318 117.057 43.0527 117.049 43.0045 117.014 42.7841 117.164 42.5772 117.384 42.5415Z" fill="#72412B" transform="matrix(1 0 0 1.00269 1107.55 796.398)"/><path d="M94.233 32.0179C93.7176 25.8837 98.0838 24.6787 100.687 24.4925 101.688 24.421 103.099 24.6466 104.308 25.2261 106.002 26.4294 107.256 28.7353 107.406 32.0326 107.521 34.5502 106.978 36.5141 106.134 37.7079 104.944 38.7503 103.312 39.237 101.969 39.3925 98.7016 39.7707 94.7659 38.3626 94.233 32.0179ZM125.742 34.3012C126.231 35.0996 128.816 37.4665 130.903 37.3387 132.582 37.2358 133.861 34.8746 134.054 33.686 134.488 31.0205 130.714 31.0632 129.355 31.1262 126.602 31.2539 124.859 32.8602 125.742 34.3012Z" fill="#231F20" transform="matrix(1 0 0 1.00269 1107.55 796.398)"/><path d="M57.0141 83.2986C57.4547 84.2827 58.3891 84.7983 60.1236 83.3905 61.7987 82.0308 61.5493 80.2774 61.2073 79.492 60.8135 78.5876 59.6998 78.1973 58.0185 79.6591 56.3242 81.1324 56.6358 82.4538 57.0141 83.2986ZM53.4885 90.9828C53.9701 91.4911 54.7383 91.5675 55.7835 90.2016 56.793 88.8826 56.3278 87.8323 55.9505 87.424 55.5161 86.9539 54.6365 87.0058 53.639 88.3917 52.6337 89.7883 53.0751 90.5464 53.4885 90.9828ZM59.5905 89.3633C59.9128 89.8031 60.4925 89.922 61.4123 88.9179 62.3006 87.9482 62.0391 87.0797 61.7874 86.7272 61.4977 86.3212 60.8215 86.2957 59.9364 87.3193 59.0444 88.3509 59.3137 88.9858 59.5905 89.3633Z" fill="#72412B" fill-opacity="0.5" transform="matrix(1 0 0 1.00269 1107.55 796.398)"/></g></svg>