<svg width="82" height="91" xmlns="http://www.w3.org/2000/svg" xmlns:xlink="http://www.w3.org/1999/xlink" xml:space="preserve" overflow="hidden"><defs><clipPath id="clip0"><rect x="1672" y="295" width="82" height="91"/></clipPath></defs><g clip-path="url(#clip0)" transform="translate(-1672 -295)"><path d="M114.576 66.5896 117.74 68.2133 120.011 63.7872 116.846 62.1635 114.576 66.5896" fill="#88A6B3" transform="matrix(1.00801 0 0 1 1614.73 242.987)"/><path d="M114.328 61.0076 122.423 65.154 124.015 62.0488 115.92 57.8978 114.328 61.0076" fill="#9EC1CF" transform="matrix(1.00801 0 0 1 1614.73 242.987)"/><path d="M81.8266 66.5896 78.6618 68.2133 76.3914 63.7872 79.5608 62.1635 81.8266 66.5896" fill="#88A6B3" transform="matrix(1.00801 0 0 1 1614.73 242.987)"/><path d="M82.0789 61.0076 73.9834 65.154 72.3872 62.0488 80.4873 57.8978 82.0789 61.0076" fill="#9EC1CF" transform="matrix(1.00801 0 0 1 1614.73 242.987)"/><path d="M101.604 66.0163 93.4218 66.0163 93.4218 57.6685 101.604 57.6685 101.604 66.0163" fill="#88A6B3" transform="matrix(1.00801 0 0 1 1614.73 242.987)"/><path d="M137.995 102.536C137.995 124.896 119.869 143.018 97.5131 143.018 75.1576 143.018 57.0309 124.896 57.0309 102.536 57.0309 80.18 75.1576 62.058 97.5131 62.058 119.869 62.058 137.995 80.18 137.995 102.536" fill="#6796AB" transform="matrix(1.00801 0 0 1 1614.73 242.987)"/><path d="M130.299 102.536C130.299 120.644 115.617 135.326 97.5131 135.326 79.4048 135.326 64.7274 120.644 64.7274 102.536 64.7274 84.4319 79.4048 69.7499 97.5131 69.7499 115.617 69.7499 130.299 84.4319 130.299 102.536" fill="#FFDE59" transform="matrix(1.00801 0 0 1 1614.73 242.987)"/><path d="M97.5131 121.561 97.5131 116.869" stroke="#24537C" stroke-width="2.04012" stroke-miterlimit="10" fill="none" transform="matrix(1.00801 0 0 -1 1614.73 438.013)"/><path d="M97.5131 68.1078 97.5131 63.4156" stroke="#24537C" stroke-width="2.04012" stroke-miterlimit="10" fill="none" transform="matrix(1.00801 0 0 -1 1614.73 438.013)"/><path d="M126.584 92.4907 121.891 92.4907" stroke="#24537C" stroke-width="2.04012" stroke-miterlimit="10" fill="none" transform="matrix(1.00801 0 0 -1 1614.73 438.013)"/><path d="M73.1348 92.4907 68.4426 92.4907" stroke="#24537C" stroke-width="2.04012" stroke-miterlimit="10" fill="none" transform="matrix(1.00801 0 0 -1 1614.73 438.013)"/><path d="M112.328 117.502 109.938 113.466" stroke="#24537C" stroke-width="2.04012" stroke-miterlimit="10" fill="none" transform="matrix(1.00801 0 0 -1 1614.73 438.013)"/><path d="M85.0923 71.5111 82.6981 67.4748" stroke="#24537C" stroke-width="2.04012" stroke-miterlimit="10" fill="none" transform="matrix(1.00801 0 0 -1 1614.73 438.013)"/><path d="M122.19 107.856 118.208 105.375" stroke="#24537C" stroke-width="2.04012" stroke-miterlimit="10" fill="none" transform="matrix(1.00801 0 0 -1 1614.73 438.013)"/><path d="M76.8179 79.6021 72.8367 77.1207" stroke="#24537C" stroke-width="2.04012" stroke-miterlimit="10" fill="none" transform="matrix(1.00801 0 0 -1 1614.73 438.013)"/><path d="M123.336 79.1388 119.171 81.29" stroke="#24537C" stroke-width="2.04012" stroke-miterlimit="10" fill="none" transform="matrix(1.00801 0 0 -1 1614.73 438.013)"/><path d="M75.8593 103.687 71.69 105.838" stroke="#24537C" stroke-width="2.04012" stroke-miterlimit="10" fill="none" transform="matrix(1.00801 0 0 -1 1614.73 438.013)"/><path d="M112.791 67.7546 110.324 71.7451" stroke="#24537C" stroke-width="2.04012" stroke-miterlimit="10" fill="none" transform="matrix(1.00801 0 0 -1 1614.73 438.013)"/><path d="M84.7025 113.227 82.2348 117.222" stroke="#24537C" stroke-width="2.04012" stroke-miterlimit="10" fill="none" transform="matrix(1.00801 0 0 -1 1614.73 438.013)"/><path d="M97.5131 110.686 97.5131 96.0591" stroke="#24537C" stroke-width="2.04012" stroke-miterlimit="10" fill="none" transform="matrix(1.00801 0 0 -1 1614.73 438.013)"/><path d="M95.9536 89.28 82.2348 75.7997" stroke="#24537C" stroke-width="2.04012" stroke-miterlimit="10" fill="none" transform="matrix(1.00801 0 0 -1 1614.73 438.013)"/><path d="M101.082 92.4907C101.082 90.5138 99.4854 88.9176 97.5131 88.9176 95.5408 88.9176 93.9447 90.5138 93.9447 92.4907 93.9447 94.4584 95.5408 96.0591 97.5131 96.0591 99.4854 96.0591 101.082 94.4584 101.082 92.4907Z" stroke="#D7282F" stroke-width="2.04012" stroke-miterlimit="10" fill="none" transform="matrix(1.00801 0 0 -1 1614.73 438.013)"/><path d="M105.145 57.8657 89.8809 57.8657 89.8809 52.0085 105.145 52.0085 105.145 57.8657" fill="#9EC1CF" transform="matrix(1.00801 0 0 1 1614.73 242.987)"/></g></svg>