<svg width="165" height="149" xmlns="http://www.w3.org/2000/svg" xmlns:xlink="http://www.w3.org/1999/xlink" xml:space="preserve" overflow="hidden"><defs><clipPath id="clip0"><rect x="863" y="788" width="165" height="149"/></clipPath></defs><g clip-path="url(#clip0)" transform="translate(-863 -788)"><path d="M158.421 119.109C153.054 136.527 143.6 135.665 138.561 134.338 131.49 132.476 135.982 120.247 135.982 120.247 135.982 120.247 124.233 121.567 107.374 122.335 111.039 125.689 114.171 131.676 110.393 134.782 106.367 138.091 98.0395 140.136 86.3677 127.772 84.9487 126.269 83.6962 124.655 82.572 122.949 73.6333 122.708 63.8031 122.134 53.2551 121.061 62.9246 125.821 67.1485 130.504 64.1045 135.576 61.0605 140.649 48.1679 130.478 31.9725 131.895 31.9725 131.895 39.1892 135.053 36.9751 139.807 34.7609 144.562 27.3685 142.145 27.3685 142.145 27.3685 142.145 25.2996 140.629 15.9708 138.955 6.64201 137.28-1.05 128.916 0.117543 116.609 1.28509 104.302 10.0347 100.357 27.4047 93.785 44.7748 87.213 69.5338 73.5023 69.9252 52.3092 70.048 45.6588 69.9978 35.805 69.8732 32.9974 66.9238 31.5047 64.2902 28.3578 64.995 23.0887 66.1825 14.2108 76.2275 14.0078 79.7282 12.4927 79.7282 12.4927 94.8175-3.99309 121.36 0.911666 150.485 6.29368 148.232 35.7396 153.01 59.3169 157.633 82.1262 163.789 101.691 158.421 119.109ZM158.421 119.109C153.054 136.527 143.6 135.665 138.561 134.338 131.49 132.476 135.982 120.247 135.982 120.247 135.982 120.247 124.233 121.567 107.374 122.335 111.039 125.689 114.171 131.676 110.393 134.782 106.367 138.091 98.0395 140.136 86.3677 127.772 84.9487 126.269 83.6962 124.655 82.572 122.949 73.6333 122.708 63.8031 122.134 53.2551 121.061 62.9246 125.821 67.1485 130.504 64.1045 135.576 61.0605 140.649 48.1679 130.478 31.9725 131.895 31.9725 131.895 39.1892 135.053 36.9751 139.807 34.7609 144.562 27.3685 142.145 27.3685 142.145 27.3685 142.145 25.2996 140.629 15.9708 138.955 6.64201 137.28-1.05 128.916 0.117543 116.609 1.28509 104.302 10.0347 100.357 27.4047 93.785 44.7748 87.213 69.5338 73.5023 69.9252 52.3092 70.048 45.6588 69.9978 35.805 69.8732 32.9974 66.9238 31.5047 64.2902 28.3578 64.995 23.0887 66.1825 14.2108 76.2275 14.0078 79.7282 12.4927 79.7282 12.4927 94.8175-3.99309 121.36 0.911666 150.485 6.29368 148.232 35.7396 153.01 59.3169 157.633 82.1262 163.789 101.691 158.421 119.109Z" fill="#897666" transform="matrix(1 0 0 1.00308 864.143 792.019)"/><path d="M115.283 29.4416C119.167 29.2432 123.413 26.9866 122.559 20.0176 121.733 13.2797 116.381 12.7872 113.313 13.0698 110.245 13.3525 105.407 15.7975 106.418 22.2404 107.428 28.6833 111.949 29.6118 115.283 29.4416ZM115.283 29.4416C119.167 29.2432 123.413 26.9866 122.559 20.0176 121.733 13.2797 116.381 12.7872 113.313 13.0698 110.245 13.3525 105.407 15.7975 106.418 22.2404 107.428 28.6833 111.949 29.6118 115.283 29.4416Z" fill="#F1F1F2" transform="matrix(1 0 0 1.00308 864.143 792.019)"/><path d="M112.509 27.9484C111.265 28.0155 109.808 27.8767 108.542 27.1391 107.563 26.2153 106.606 24.5252 106.256 22.2893 105.797 19.3612 106.713 17.0742 107.95 15.7631 108.941 15.0688 110.062 14.7133 110.982 14.6243 113.374 14.3927 117.546 14.7909 118.186 20.2745 118.849 25.9463 115.537 27.7851 112.509 27.9484ZM112.509 27.9484C111.265 28.0155 109.808 27.8767 108.542 27.1391 107.563 26.2153 106.606 24.5252 106.256 22.2893 105.797 19.3612 106.713 17.0742 107.95 15.7631 108.941 15.0688 110.062 14.7133 110.982 14.6243 113.374 14.3927 117.546 14.7909 118.186 20.2745 118.849 25.9463 115.537 27.7851 112.509 27.9484ZM77.6783 21.2318C75.6978 21.2826 70.2325 20.8919 70.5905 23.6855 70.9485 26.4792 81.1759 26.1582 82.6048 24.6979 84.0336 23.2377 81.4124 21.1359 77.6783 21.2318Z" fill="#231F20" transform="matrix(1 0 0 1.00308 864.143 792.019)"/><path d="M136.605 43.4618C136.541 43.4956 136.471 43.5111 136.403 43.5101 136.254 43.508 136.11 43.4264 136.036 43.2847 135.927 43.0786 136.007 42.8235 136.213 42.715 145.896 37.6217 148.318 33.5613 148.74 32.7122 148.822 33.128 148.903 33.5451 148.982 33.9638 147.816 35.6914 144.657 39.2263 136.605 43.4618ZM151.051 47.3284C150.338 47.9703 147.568 50.3243 143.541 51.9916 143.326 52.0808 143.224 52.3275 143.313 52.5428 143.379 52.7031 143.533 52.8009 143.696 52.8033 143.752 52.8041 143.809 52.7938 143.864 52.7711 147.475 51.2757 150.062 49.2881 151.193 48.3271 151.146 47.9944 151.098 47.6615 151.051 47.3284ZM86.8121 6.95892C87.2205 6.70663 87.644 6.45294 88.0862 6.19921 90.0238 6.37783 92.309 6.75513 94.7668 7.49565 94.99 7.5627 95.1163 7.79809 95.0493 8.02119 94.9935 8.20554 94.8229 8.32376 94.6396 8.32136 94.6009 8.32081 94.5622 8.31491 94.5237 8.30322 91.6169 7.42732 88.9315 7.0757 86.8121 6.95892ZM80.0696 12.1424C81.3704 12.0102 86.2914 11.6786 92.0741 13.4211 92.1126 13.4328 92.1512 13.4387 92.19 13.4393 92.3732 13.4419 92.5438 13.3235 92.5996 13.1391 92.6667 12.916 92.5403 12.6806 92.3172 12.6136 87.4042 11.1332 83.1755 11.1001 81.0548 11.217 80.619 11.607 80.2914 11.9219 80.0696 12.1424Z" fill="#674D42" fill-opacity="0.4" transform="matrix(1 0 0 1.00308 864.143 792.019)"/><path d="M57.863 85.5146C59.0686 86.4582 61.2665 86.2503 64.8074 82.5392 68.227 78.9552 67.2716 76.7392 66.3309 75.9765 65.2477 75.0983 62.679 75.6614 59.269 79.3953 55.8326 83.1581 56.828 84.7046 57.863 85.5146ZM52.2346 86.7197C51.5902 85.8088 50.1538 85.4388 47.3821 87.1026 44.7053 88.7093 45.0169 90.4139 45.5162 91.1422 46.0911 91.981 47.8131 92.1991 50.5041 90.4898 53.2159 88.7673 52.7878 87.5016 52.2346 86.7197ZM60.3654 89.3852C59.9047 88.7341 58.8779 88.4697 56.8966 89.659 54.9831 90.8075 55.2058 92.026 55.5627 92.5468 55.9736 93.1464 57.2047 93.3023 59.1283 92.0804 61.0669 90.849 60.7609 89.9442 60.3654 89.3852Z" fill="#674D42" fill-opacity="0.2" transform="matrix(1 0 0 1.00308 864.143 792.019)"/><path d="M84.275 33.8821C84.275 33.8821 86.7943 50.3626 83.5863 66.4252 82.8945 68.616 89.3243 65.2975 91.345 54.8733 93.3657 44.4491 91.6596 33.0293 91.6596 33.0293 91.6596 33.0293 86.5653 34.7025 84.275 33.8821ZM72.0196 32.948C72.0196 32.948 71.761 34.3243 71.9107 36.0028 71.1956 41.5004 70.0956 53.5575 72.121 65.4768 72.7493 67.6866 66.4178 64.1843 64.6981 53.7063 62.9784 43.2282 65.4729 28.2762 65.4729 28.2762 65.4729 28.2762 67.2429 33.7021 72.0196 32.948Z" fill="#E1D7CE" transform="matrix(1 0 0 1.00308 864.143 792.019)"/><path d="M96.3623 27.7934C95.7346 32.1918 91.25 34.3682 87.0839 34.5739 86.8807 34.584 86.6759 34.5874 86.4712 34.5845 83.8091 34.5464 81.0383 33.4241 78.949 31.5157 77.8106 30.4759 76.9737 29.2959 76.4848 28.0663 75.9686 29.8433 74.9168 31.484 73.565 32.5061 73.13 32.8347 72.6835 33.0819 72.2324 33.2541 72.1987 34.1261 72.2602 37.0428 74.4072 38.9858 76.5385 40.9147 80.079 41.3794 84.9331 40.3668 84.9416 40.5426 84.9882 41.0831 84.9889 41.2166 83.2213 41.5784 81.6145 41.7485 80.1723 41.7277 77.4716 41.6889 75.3493 40.9801 73.8343 39.6051 71.5907 37.5692 71.3658 34.6994 71.3809 33.481 70.8396 33.5675 70.297 33.5476 69.7639 33.4049 65.8164 32.3461 64.8149 27.5765 64.7742 27.3739 64.7285 27.1458 64.876 26.9237 65.1043 26.8777 65.3319 26.8314 65.5549 26.9789 65.601 27.2074 65.6101 27.2518 66.5441 31.668 69.9825 32.59 70.6024 32.7563 71.1832 32.704 71.6981 32.5463 71.7082 32.543 71.7183 32.5412 71.7287 32.5386 72.2513 32.3736 72.7039 32.0995 73.0562 31.8331 74.7782 30.5315 75.9575 28.1011 75.9908 25.785 75.9941 25.5566 76.1784 25.3725 76.407 25.3694 76.4108 25.3692 76.4149 25.3693 76.419 25.3693 76.6418 25.3725 76.8246 25.5494 76.8337 25.7736 76.9072 27.5612 77.8606 29.379 79.5177 30.893 81.6055 32.8 84.4192 33.8616 87.0425 33.7314 90.7387 33.549 94.9703 31.5755 95.527 27.6742 95.56 27.4438 95.7732 27.2819 96.0042 27.3164 96.2348 27.3491 96.3952 27.5628 96.3623 27.7934ZM81.4616 122.918C80.0326 120.849 76.3552 113.796 79.0879 98.7515 79.1291 98.5223 79.348 98.3681 79.578 98.4118 79.8073 98.4534 79.9594 98.6731 79.9178 98.9019 76.7342 116.43 82.5127 122.885 82.572 122.949 82.2923 122.964 81.5959 122.97 81.4616 122.918ZM53.2551 121.061C53.205 121.037 48.4515 118.768 38.9814 116.591 35.9725 115.899 33.8998 114.225 33.1452 111.876 32.497 109.859 32.9186 107.46 34.1702 106.042 34.3243 105.867 34.5911 105.851 34.7656 106.005 34.9403 106.159 34.9568 106.425 34.8027 106.6 33.9317 107.587 33.2928 109.578 33.9482 111.618 34.4152 113.071 35.7002 114.971 39.1704 115.769 48.7428 117.97 55.7576 121.301 55.7012 121.302 54.768 121.309 53.3122 121.088 53.2551 121.061ZM31.9745 131.887C30.38 131.477 26.3909 130.419 23.1288 129.279 21.7731 128.806 14.9017 126.147 12.7644 120.308 11.5269 116.927 12.118 113.146 14.5218 109.07 14.64 108.869 14.8986 108.802 15.0994 108.921 15.2999 109.04 15.3667 109.298 15.2484 109.498 12.9792 113.346 12.41 116.886 13.5566 120.018 15.5633 125.5 22.1144 128.031 23.4072 128.483 27.5275 129.923 34.6142 131.712 34.4704 131.764 34.1333 131.888 32.4129 132 31.9745 131.887ZM63.1144 136.558C61.933 134.811 57.7946 130.304 45.2406 127.132 45.0147 127.075 44.878 126.846 44.9349 126.62 44.992 126.394 45.2219 126.257 45.4473 126.315 58.1342 129.52 62.4464 134.042 63.7819 136.017 63.7043 136.148 63.4211 136.474 63.1144 136.558ZM34.0251 142.376C33.2679 141.352 31.184 139.259 26.262 138.084 19.2225 136.404 16.7201 133.642 16.6172 133.526 16.463 133.351 16.4794 133.085 16.654 132.93 16.829 132.776 17.095 132.793 17.2493 132.967 17.2724 132.993 19.712 135.653 26.4579 137.264 31.8899 138.56 34.0722 140.926 34.8288 142.041 34.7166 142.116 34.1266 142.364 34.0251 142.376ZM111.747 132.976C110.72 131.806 108.036 128.969 104.128 126.442 103.933 126.316 103.671 126.372 103.544 126.567 103.418 126.763 103.474 127.024 103.669 127.151 107.754 129.792 110.532 132.856 111.32 133.772 111.493 133.518 111.634 133.251 111.747 132.976ZM108.14 136.215C108.135 136.213 108.131 136.208 108.126 136.206 108.073 136.183 102.723 133.855 98.7467 130.416 98.5705 130.263 98.3037 130.283 98.1517 130.459 97.9992 130.635 98.0185 130.901 98.1946 131.054 101.402 133.828 105.467 135.889 107.083 136.655 107.451 136.523 107.804 136.376 108.14 136.215ZM102.944 116.047C100.831 113.118 100.007 103.314 101.25 95.8713 101.288 95.6416 101.133 95.4243 100.903 95.386 100.674 95.3464 100.456 95.5027 100.418 95.7324 99.1456 103.353 100.041 113.465 102.26 116.54 104.103 119.095 106.383 121.374 107.386 122.335 107.772 122.317 108.152 122.299 108.533 122.281 108.513 122.251 108.497 122.219 108.469 122.194 108.438 122.166 105.318 119.336 102.944 116.047ZM141.437 93.6854C141.204 93.6932 141.021 93.8883 141.029 94.1211 141.033 94.2407 141.416 106.12 140.182 109.119 139.658 110.393 139.06 111.6 138.368 112.998 137.387 114.98 136.275 117.226 135.046 120.336 135.045 120.339 135.045 120.343 135.044 120.347 135.655 120.284 135.982 120.247 135.982 120.247 135.982 120.247 138.173 115.293 139.124 113.372 139.823 111.96 140.427 110.741 140.962 109.44 142.264 106.275 141.889 94.5887 141.872 94.0929 141.865 93.8596 141.667 93.6719 141.437 93.6854ZM140.863 122.59C140.703 122.761 137.108 126.68 135.842 132.539 136.048 132.817 136.282 133.073 136.55 133.303 137.643 127.354 141.441 123.206 141.48 123.164 141.639 122.994 141.629 122.727 141.458 122.568 141.288 122.41 141.022 122.419 140.863 122.59ZM146.38 125.872C146.158 125.811 145.923 125.943 145.862 126.168 144.876 129.784 141.787 133.428 140.565 134.767 140.895 134.82 141.236 134.864 141.586 134.898 143.027 133.266 145.726 129.872 146.676 126.39 146.737 126.165 146.605 125.933 146.38 125.872Z" fill="#674D42" transform="matrix(1 0 0 1.00308 864.143 792.019)"/></g></svg>