<svg width="195" height="130" xmlns="http://www.w3.org/2000/svg" xmlns:xlink="http://www.w3.org/1999/xlink" xml:space="preserve" overflow="hidden"><defs><clipPath id="clip0"><rect x="658" y="821" width="195" height="130"/></clipPath></defs><g clip-path="url(#clip0)" transform="translate(-658 -821)"><path d="M158.039 71.0253C146.736 69.9198 149.715 79.8789 132.804 94.2804 129.617 96.9949 126.125 99.3606 122.383 101.393 125.316 102.946 128.562 104.374 130.137 105.013 133.126 106.224 139.287 112.724 124.072 116.533 116.048 118.542 103.887 113.992 97.1725 109.619 96.0233 109.798 94.8677 109.964 93.6997 110.103 78.7427 111.877 69.4053 103.465 55.8763 98.7247 16.5047 83.3131 11.8549 63.969 9.98547 52.9544 8.05415 41.576 2.88936 36.0963 0.964517 27.9941 0.929831 27.8481 0.889882 27.6877 0.847301 27.5208 0.586122 26.4192-0.0230376 23.5399 0.000733407 20.719 1.92062 11.1352 17.6947-5.22402 48.8859 1.63261 86.762 9.95876 91.0559 37.8555 103.775 54.7072 116.493 71.5591 135.138 69.4187 136.537 67.3995 138.883 64.0157 136.164 59.5366 132.813 56.9972 128.184 53.489 122.991 40.8807 127.363 31.5343 131.736 22.1878 140.354 14.1692 139.81 20.905 139.266 27.6408 144.065 35.6497 146.846 38.4804 149.54 41.2222 156.438 47.5723 154.11 54.8023 156.545 48.7277 164.48 46.2765 175.456 45.4108 186.849 44.5122 188.381 35.5276 190.629 36.5151 192.878 37.5027 194.07 40.4401 192.087 50.2996 189.852 61.418 172.185 72.4088 158.039 71.0253ZM158.039 71.0253C146.736 69.9198 149.715 79.8789 132.804 94.2804 129.617 96.9949 126.125 99.3606 122.383 101.393 125.316 102.946 128.562 104.374 130.137 105.013 133.126 106.224 139.287 112.724 124.072 116.533 116.048 118.542 103.887 113.992 97.1725 109.619 96.0233 109.798 94.8677 109.964 93.6997 110.103 78.7427 111.877 69.4053 103.465 55.8763 98.7247 16.5047 83.3131 11.8549 63.969 9.98547 52.9544 8.05415 41.576 2.88936 36.0963 0.964517 27.9941 0.929831 27.8481 0.889882 27.6877 0.847301 27.5208 0.586122 26.4192-0.0230376 23.5399 0.000733407 20.719 1.92062 11.1352 17.6947-5.22402 48.8859 1.63261 86.762 9.95876 91.0559 37.8555 103.775 54.7072 116.493 71.5591 135.138 69.4187 136.537 67.3995 138.883 64.0157 136.164 59.5366 132.813 56.9972 128.184 53.489 122.991 40.8807 127.363 31.5343 131.736 22.1878 140.354 14.1692 139.81 20.905 139.266 27.6408 144.065 35.6497 146.846 38.4804 149.54 41.2222 156.438 47.5723 154.11 54.8023 156.545 48.7277 164.48 46.2765 175.456 45.4108 186.849 44.5122 188.381 35.5276 190.629 36.5151 192.878 37.5027 194.07 40.4401 192.087 50.2996 189.852 61.418 172.185 72.4088 158.039 71.0253Z" fill="#284E65" transform="matrix(1 0 0 1.00444 658.949 826.243)"/><path d="M93.6996 110.103C79.2078 111.578 63.6893 109.985 50.6564 105.419 11.2848 90.0073 2.81249 63.4855 0.942989 52.4709-0.944628 41.3492 2.60083 35.8046 0.964517 27.9941L0.967968 27.9928C0.967968 27.9928 4.26675 18.2529 20.2706 18.8427 37.9103 19.4927 57.6886 43.59 62.2283 66.2389 66.768 88.8879 72.3032 103.925 93.6996 110.103Z" fill="#F9F1E9" transform="matrix(1 0 0 1.00444 658.949 826.243)"/><path d="M93.6996 110.103C79.2078 111.578 63.6893 109.985 50.6564 105.419 11.2848 90.0073 2.81249 63.4855 0.942989 52.4709-0.944628 41.3492 2.60083 35.8046 0.964517 27.9941L0.967968 27.9928C0.967968 27.9928 4.26675 18.2529 20.2706 18.8427 37.9103 19.4927 57.6886 43.59 62.2283 66.2389 66.768 88.8879 72.3032 103.925 93.6996 110.103Z" fill="#F9F1E9" transform="matrix(1 0 0 1.00444 658.949 826.243)"/><path d="M85.4051 54.0672C81.4902 52.6814 77.1828 53.5991 74.5211 61.2867 71.8594 68.9743 76.521 72.0213 79.6726 72.9767 82.8241 73.9321 88.0672 73.3776 90.0921 65.8389 92.117 58.3002 88.7659 55.2569 85.4051 54.0672ZM85.4051 54.0672C81.4902 52.6814 77.1828 53.5991 74.5211 61.2867 71.8594 68.9743 76.521 72.0213 79.6726 72.9767 82.8241 73.9321 88.0672 73.3776 90.0921 65.8389 92.117 58.3002 88.7659 55.2569 85.4051 54.0672Z" fill="#F1F1F2" transform="matrix(1 0 0 1.00444 658.949 826.243)"/><path d="M90.0928 65.9188C88.5237 71.7608 85.036 73.5553 82.0582 73.3286 79.4977 72.0941 76.6052 69.287 78.4512 63.9066 80.6299 57.5567 84.7088 57.0302 88.0476 58.2215 88.9496 58.5433 89.8097 58.999 90.5143 59.6662 91.0194 61.2277 90.7729 63.3868 90.0928 65.9188Z" fill="#231F20" transform="matrix(1 0 0 1.00444 658.949 826.243)"/><path d="M76.7772 110.448C76.1679 110.412 75.5594 110.37 74.9515 110.324 60.923 100.24 54.395 86.0072 54.55 66.1547 54.635 55.2616 52.8966 46.6576 51.1123 40.7298 51.6917 41.5752 52.2565 42.4345 52.8043 43.3073 54.2993 49.1003 55.5646 56.797 55.4916 66.1625 55.3347 86.2611 62.1377 100.497 76.7772 110.448ZM58.7324 107.792C42.6437 94.8849 42.3822 80.0923 41.9818 56.2924 41.6752 38.0674 38.2122 28.9299 35.3967 24.4861 34.6406 23.9686 33.8791 23.4834 33.114 23.0294 35.8207 26.191 40.6792 34.8303 41.0406 56.3079 41.4193 78.8255 41.6916 94.2771 56.619 107.248 57.3192 107.436 58.0223 107.619 58.7324 107.792ZM27.5904 56.0892C27.757 33.3629 21.649 22.9236 18.1727 18.8313 17.7425 18.8401 17.3219 18.8563 16.9119 18.8805 20.0712 22.3763 26.821 32.6076 26.6489 56.0825 26.5331 71.8654 27.8957 81.365 31.3519 88.8712 33.4541 93.4365 36.3587 97.3067 40.4488 100.849 41.7689 101.522 43.1371 102.18 44.5459 102.826 29.951 92.3061 27.4199 79.3298 27.5904 56.0892ZM11.6277 52.5882C12.5965 33.7467 9.26681 25.1933 6.94515 21.5874 6.65476 21.7537 6.37879 21.9237 6.11416 22.0965 8.29846 25.5195 11.6455 33.909 10.6874 52.5398 10.1434 63.1206 11.6598 72.617 15.1949 80.7639 15.4571 81.3682 15.7306 81.9651 16.0153 82.5548 16.7454 83.367 17.5088 84.1789 18.309 84.9889 13.2216 76.0637 10.977 65.2408 11.6277 52.5882Z" fill="#284E65" fill-opacity="0.2" transform="matrix(1 0 0 1.00444 658.949 826.243)"/><path d="M122.383 101.393C121.278 100.635 115.891 96.7852 111.941 92.36 111.767 92.1658 111.784 91.8682 111.978 91.6951 112.172 91.5222 112.468 91.5393 112.643 91.7325 116.958 96.5667 122.977 100.635 123.038 100.676 123.101 100.718 123.265 100.818 123.3 100.88 123.012 101.043 122.674 101.234 122.383 101.393ZM97.0442 109.638C95.8005 108.919 87.6663 104.159 83.5415 100.394 83.3492 100.219 83.0517 100.232 82.8765 100.425 82.7012 100.617 82.7146 100.914 82.9068 101.09 86.5149 104.383 92.9121 108.295 95.557 109.859 96.0542 109.789 96.5498 109.715 97.0442 109.638ZM89.9357 113.54C89.2452 112.888 88.1567 111.815 86.953 110.557 78.1023 110.513 68.444 109.659 60.1373 108.12 65.3091 114.128 72.7256 121.051 80.1002 122.071 95.6372 124.22 92.28 115.755 89.9357 113.54Z" fill="#163349" transform="matrix(1 0 0 1.00444 658.949 826.243)"/><path d="M72.5227 23.2265C68.7793 18.0031 73.114 17.225 75.458 19.4791 79.8438 23.6968 76.2661 28.4499 72.5227 23.2265ZM64.3518 11.9743C62.3323 11.0101 59.6698 12.4578 63.2469 15.058 66.8239 17.6582 68.1305 13.7784 64.3518 11.9743ZM66.2801 19.9509C64.6101 18.7558 61.9723 19.6367 64.7871 22.5598 67.602 25.4829 69.4048 22.187 66.2801 19.9509ZM120.144 72.4532C125.037 74.6293 122.249 77.0159 119.614 76.3839 114.684 75.2014 115.252 70.2771 120.144 72.4532ZM131.118 80.3892C133.128 79.9671 134.262 77.4281 130.205 77.5251 126.148 77.6222 127.357 81.1791 131.118 80.3892ZM128.804 75.2412C130.134 75.107 131.044 73.5423 128.411 73.3245 125.779 73.1068 126.315 75.4923 128.804 75.2412Z" fill="#163349" fill-opacity="0.5" transform="matrix(1 0 0 1.00444 658.949 826.243)"/></g></svg>