<svg width="157" height="134" xmlns="http://www.w3.org/2000/svg" xmlns:xlink="http://www.w3.org/1999/xlink" xml:space="preserve" overflow="hidden"><defs><clipPath id="clip0"><rect x="878" y="295" width="157" height="134"/></clipPath></defs><g clip-path="url(#clip0)" transform="translate(-878 -295)"><path d="M107.235 114.565C108.548 117.628 101.109 128.13 99.5779 129.661 98.0464 131.193 84.7005 132.068 89.5138 125.942 91.7016 121.785 92.0845 117.355 91.7563 115.878 91.4281 114.401 88.4746 105.048 88.1464 102.095L110.08 97.5001C105.704 106.251 105.923 111.502 107.235 114.565ZM61.982 25.2754C75.3509 22.1466 55.8511-0.846559 52.3352 0.0241119 38.9549 6.47365 41.4635 17.9026 41.4635 17.9026 41.4635 17.9026 52.1247 26.9832 61.982 25.2754ZM50.5427 90.3896C50.5427 90.3896 41.5631 97.9923 42.4656 103.079 43.3681 108.166 48.8471 113.745 48.683 115.386 48.519 117.027 47.6165 120.39 52.7032 118.914 57.79 117.437 61.1538 113.417 59.595 110.135 58.0361 106.853 56.5867 104.2 56.9969 103.626 57.4072 103.052 59.6213 99.2556 62.4107 98.189 61.1801 96.1378 50.5427 90.3896 50.5427 90.3896Z" fill="#72412B" transform="matrix(1 0 0 1.00697 881.648 295.916)"/><path d="M152.015 82.5688C148.931 82.6781 146.153 81.0164 144.227 78.7874 144.921 78.7153 145.621 78.5646 146.318 78.3332 149.367 77.3197 151.636 74.9642 152.098 72.3323 152.581 69.5783 151.329 66.8637 148.983 65.577 146.566 64.2502 143.67 64.7895 141.238 67.016 139.156 68.9211 138.49 71.8335 139.352 74.9978 139.098 74.8123 138.852 74.6079 138.615 74.3843 135.298 71.2618 133.597 65.3161 133.58 65.2568 133.543 65.1251 133.481 65.0081 133.409 64.9002 132.485 62.2287 131.056 59.7072 128.977 57.4625 118.038 45.648 85.3705 52.9301 81.6512 50.9611 78.5216 49.3042 78.7038 41.0913 76.0902 32.5864 85.5086 30.5981 84.458 9.5622 81.2957 8.82676 71.5287 8.61093 66.9087 13.4343 64.8896 16.7619 60.4272 13.8817 56.1037 10.6972 45.9893 11.5798 26.7643 13.2575 22.8696 30.2784 21.1194 33.3414 21.1194 33.3414 21.6116 34.2712 12.2586 36.5685 2.90555 38.8658-3.65801 48.0547 2.24916 60.5254 8.15633 72.9962 30.6365 70.3708 38.0205 72.1586 45.4044 73.9464 41.6272 89.6238 57.5439 97.8282 59.4075 98.7888 61.4458 99.5811 63.5971 100.235 63.5967 100.235 63.5944 100.235 63.5944 100.235 63.5944 100.235 66.0764 115.058 66.5687 118.832 67.061 122.606 66.5687 125.231 66.5687 125.231 66.5687 125.231 63.972 127.692 65.7626 129.169 67.5532 130.646 78.0549 131.302 78.7112 126.872 79.2946 122.934 80.6548 109.152 81.0656 102.908 92.9039 103.457 103.903 102.095 106.606 102.095 106.934 105.048 109.888 114.401 110.216 115.878 110.544 117.355 110.162 121.785 107.974 125.942 103.16 132.068 116.506 131.193 118.038 129.661 119.569 128.13 127.008 117.628 125.695 114.565 124.383 111.502 124.164 106.252 128.54 97.5001 131.202 92.1748 134.837 82.8798 134.81 73.7561 135.423 74.641 136.115 75.4862 136.89 76.2162 138.09 77.3468 139.462 78.1212 140.921 78.5205 143.145 82.0644 147.139 85.0902 151.735 85.0898 151.857 85.0898 151.98 85.0877 152.103 85.0833 152.797 85.0591 153.341 84.4764 153.316 83.7819 153.292 83.0872 152.711 82.5573 152.015 82.5688ZM142.531 76.2664C142.397 76.0015 142.275 75.7349 142.166 75.4683 141.639 74.1792 140.659 70.9563 142.936 68.8719 144.561 67.3854 146.323 66.9878 147.773 67.783 149.175 68.5517 149.917 70.2053 149.62 71.8974 149.32 73.6042 147.675 75.2308 145.525 75.9454 144.521 76.2795 143.508 76.3815 142.531 76.2664Z" fill="#8C5C42" transform="matrix(1 0 0 1.00697 881.648 295.916)"/><path d="M6.84594 65.8889C4.90306 64.5109 3.30857 62.762 2.24916 60.5254-1.62238 52.3522-0.136746 45.589 3.97968 41.2514 3.99147 41.2483 8.40273 40.1042 8.56661 45.9215 12.0945 40.0964 19.8887 38.7016 21.8578 47.6445 23.8268 56.5873 19.205 69.4956 6.84594 65.8889Z" fill="#CC956E" transform="matrix(1 0 0 1.00697 881.648 295.916)"/><path d="M34.9259 63.1183C35.9966 61.5374 35.6039 59.3622 35.5867 59.2703 35.544 59.0432 35.3295 58.8945 35.1073 58.9378 34.8819 58.9831 34.7388 59.2005 34.7807 59.4279 34.7844 59.4469 35.1242 61.3562 34.2491 62.6444 33.8371 63.2504 33.2074 63.6324 32.3741 63.7787 29.4681 64.2896 28.5724 60.3905 28.5356 60.2243 28.4861 59.9984 28.2667 59.8563 28.0457 59.9069 27.8195 59.9608 27.6857 60.1818 27.7351 60.4073 28.1018 62.0854 29.5721 65.1222 32.5132 64.6054 32.776 64.559 33.0233 64.4936 33.2553 64.4089 33.9582 64.1524 34.5184 63.7201 34.9259 63.1183ZM68.0727 19.1978C69.4584 17.0786 71.8583 13.743 77.8628 13.8757 79.8601 14.3402 80.5478 27.3946 74.8365 29.077 73.2837 25.3196 71.593 22.1834 68.0727 19.1978Z" fill="#72412B" transform="matrix(1 0 0 1.00697 881.648 295.916)"/><path d="M47.2089 28.3743C43.2331 28.6357 39.715 31.3899 40.0124 37.6678 40.3064 43.875 45.9815 45.3732 49.3411 44.9646 52.9495 44.5258 56.5752 41.7866 56.0534 35.3643 55.5333 28.9627 50.6221 28.1499 47.2089 28.3743ZM47.2089 28.3743C43.2331 28.6357 39.715 31.3899 40.0124 37.6678 40.3064 43.875 45.9815 45.3732 49.3411 44.9646 52.9495 44.5258 56.5752 41.7866 56.0534 35.3643 55.5333 28.9627 50.6221 28.1499 47.2089 28.3743Z" fill="#F1F1F1" transform="matrix(1 0 0 1.00697 881.648 295.916)"/><path d="M104.153 56.9781C104.312 58.2552 105.64 59.4228 109.599 59.2719 113.423 59.1261 114.089 57.2303 113.979 56.2179 113.853 55.0521 112.129 53.8801 108.229 54.1218 104.3 54.3654 104.017 55.8818 104.153 56.9781ZM94.3796 57.4224C94.4976 58.3205 95.353 59.1306 97.8521 58.9873 100.266 58.8489 100.66 57.5072 100.577 56.7951 100.481 55.9751 99.3746 55.1657 96.9147 55.3723 94.4357 55.5806 94.2782 56.6514 94.3796 57.4224ZM101.718 63.6085C101.712 64.294 102.182 64.9595 103.778 65.0089 105.319 65.0566 105.689 64.0686 105.7 63.5258 105.713 62.9007 105.084 62.2199 103.508 62.2208 101.919 62.2216 101.723 63.0201 101.718 63.6085ZM50.6193 85.9712C49.9634 86.5208 49.7598 87.6225 51.1687 89.5716 52.5295 91.4539 53.8047 91.0941 54.3301 90.6665 54.935 90.1742 55.0083 88.8702 53.5691 86.9849 52.1188 85.0851 51.1823 85.4993 50.6193 85.9712ZM53.5117 81.104C52.9821 81.5023 52.7625 82.2836 53.7148 83.6384 54.6344 84.9469 55.622 84.6732 56.0454 84.3631 56.533 84.0061 56.6658 83.0839 55.6869 81.7746 54.7004 80.455 53.9663 80.762 53.5117 81.104ZM47.8512 79.5514C47.4055 79.8158 47.1585 80.3798 47.7508 81.4316 48.3228 82.4474 49.1065 82.3002 49.462 82.0951 49.8713 81.8588 50.0661 81.1861 49.4488 80.1664 48.8267 79.1387 48.2337 79.3244 47.8512 79.5514ZM110.863 103.564C110.029 103.918 109.479 104.96 110.287 107.329 111.068 109.617 112.466 109.637 113.13 109.365 113.894 109.053 114.377 107.77 113.518 105.456 112.652 103.124 111.579 103.259 110.863 103.564ZM69.4863 120.072C70.1642 119.97 70.7483 119.403 70.5479 117.819 70.3543 116.289 69.3207 116.078 68.7828 116.152 68.1635 116.237 67.5891 116.964 67.8362 118.521 68.0852 120.09 68.9044 120.159 69.4863 120.072Z" fill="#72412B" fill-opacity="0.5" transform="matrix(1 0 0 1.00697 881.648 295.916)"/><path d="M120.099 127.04C119.192 128.31 118.425 129.274 118.038 129.661 116.506 131.193 103.16 132.068 107.974 125.942 108.073 125.754 108.164 125.565 108.255 125.377 108.255 125.377 108.259 125.376 108.259 125.376 108.259 125.376 109.58 128.903 120.099 127.04ZM101.608 127.084C101.608 127.084 101.608 127.083 101.608 127.083 90.9205 128.662 89.9215 125.12 89.9215 125.12L89.9208 125.12C89.7924 125.395 89.6575 125.669 89.5138 125.942 84.7005 132.068 98.0464 131.193 99.5779 129.661 99.9611 129.278 100.714 128.333 101.608 127.084ZM78.8605 125.781C68.401 127.949 66.6162 124.925 66.6162 124.925 66.6162 124.925 63.9719 127.692 65.7626 129.169 67.5532 130.646 78.0549 131.302 78.7112 126.872 78.7565 126.567 78.8067 126.197 78.8605 125.781ZM52.7032 118.914C57.79 117.437 61.1538 113.417 59.595 110.135 59.5051 109.946 59.4157 109.759 59.327 109.574 51.9375 118.64 48.6831 115.386 48.6831 115.386 48.519 117.027 47.6165 120.39 52.7032 118.914ZM15.5403 48.4376C12.2039 47.5077 9.08617 57.3531 13.1337 58.1735 17.1812 58.9939 19.2066 49.4593 15.5403 48.4376ZM3.03961 48.4376C5.55618 47.5077 7.9077 57.3531 4.85484 58.1735 1.80198 58.9939 0.274289 49.4593 3.03961 48.4376ZM56.2117 35.385C55.9712 32.4246 54.6984 30.5423 53.0961 29.6202 52.5342 29.478 51.9408 29.4284 51.2902 29.5288 49.478 29.8087 47.6352 30.6134 46.4725 32.3082 45.6228 33.4418 45.1417 35.0895 45.2903 37.4944 45.6168 42.7776 50.2794 43.7088 52.7733 43.5638 52.8606 43.5587 52.9475 43.5452 53.0345 43.5349 55.1221 42.1195 56.5464 39.5041 56.2117 35.385ZM95.0375 48.0359C89.2726 48.2562 87.0388 46.5505 86.6969 45.0271 87.2231 45.2215 88.0226 45.2081 88.653 45.1535 89.0842 45.1162 89.3347 44.6425 89.1128 44.2709 87.2782 41.1974 85.2748 34.3259 85.2748 34.3259 85.2748 34.3259 86.7532 34.8539 88.1851 35.3451 88.6332 35.4988 89.0754 35.0862 88.9462 34.6305 87.7593 30.4417 85.0189 26.2427 82.9274 23.4543 81.9877 27.8766 79.7854 31.708 75.9833 32.5107 78.5968 41.0156 78.5148 49.3856 81.6444 51.0424 83.5956 52.0754 93.7664 50.8305 104.09 50.5157 103.553 49.3886 101.008 47.8077 95.0375 48.0359ZM69.2911 6.79851C69.4511 6.39444 69.1291 6.06261 68.7 5.99363 56.0862 3.9658 48.1117 6.42094 43.4983 9.01869L43.493 9.01869C43.493 9.01869 43.4706 9.0319 43.4292 9.0569 41.7044 10.0356 40.4579 11.0276 39.6189 11.809 38.2842 12.9411 36.9207 14.3252 36.103 15.784 36.1576 16.4403 50.6521 7.7026 64.8897 16.7619 66.1674 14.6561 68.4891 11.9528 72.4953 10.3051 70.0516 9.24346 68.4284 8.97638 68.4284 8.97638L69.2911 6.79851Z" fill="#231F20" transform="matrix(1 0 0 1.00697 881.648 295.916)"/></g></svg>